<svg width="48" height="48" viewBox="0 0 48 48" fill="none" xmlns="http://www.w3.org/2000/svg">
<circle cx="24" cy="24" r="24" fill="#0F0F0F"/>
<path d="M5.33008 23.8701V23.0498L10.0713 21.0479V21.9219L6.31152 23.4648L10.0713 25.0225V25.8965L5.33008 23.8701ZM10.623 27.1221L12.6982 19.7197H13.4014L11.3311 27.1221H10.623ZM40.96 23.8701L36.2188 25.8965V25.0225L39.9736 23.4648L36.2188 21.9219V21.0479L40.96 23.0498V23.8701Z" fill="#F9F4EB"/>
<path d="M24.736 27.936H32.224V36H30.352V33.984H30.064C29.792 34.688 29.312 35.256 28.624 35.688C27.936 36.12 27.136 36.336 26.224 36.336C24.416 36.336 22.992 35.752 21.952 34.584C20.928 33.416 20.416 31.712 20.416 29.472V25.728C20.416 23.552 20.936 21.864 21.976 20.664C23.016 19.464 24.464 18.864 26.32 18.864C27.28 18.864 28.128 19.024 28.864 19.344C29.6 19.648 30.216 20.08 30.712 20.64C31.208 21.184 31.584 21.832 31.84 22.584C32.096 23.32 32.224 24.112 32.224 24.96V25.248H30.208V24.96C30.208 24.416 30.128 23.888 29.968 23.376C29.824 22.864 29.592 22.416 29.272 22.032C28.968 21.632 28.568 21.32 28.072 21.096C27.592 20.856 27.008 20.736 26.32 20.736C25.024 20.736 24.048 21.208 23.392 22.152C22.752 23.096 22.432 24.336 22.432 25.872V29.328C22.432 30.976 22.752 32.248 23.392 33.144C24.048 34.024 25.04 34.464 26.368 34.464C27.568 34.464 28.504 34.08 29.176 33.312C29.864 32.544 30.208 31.472 30.208 30.096V29.808H24.736V27.936Z" fill="#F9F4EB"/>
<path d="M21.44 26.464C22.128 26.464 22.712 26.352 23.192 26.128C23.688 25.888 24.088 25.576 24.392 25.192C24.712 24.792 24.944 24.344 25.088 23.848C25.248 23.336 25.328 22.8 25.328 22.24V21.952H27.344V22.24C27.344 23.088 27.216 23.888 26.96 24.64C26.704 25.376 26.328 26.024 25.832 26.584C25.336 27.128 24.72 27.56 23.984 27.88C23.248 28.184 22.4 28.336 21.44 28.336C19.584 28.336 18.136 27.752 17.096 26.584C16.056 25.416 15.536 23.712 15.536 21.472V17.728C15.536 15.552 16.056 13.864 17.096 12.664C18.136 11.464 19.584 10.864 21.44 10.864C22.4 10.864 23.248 11.024 23.984 11.344C24.72 11.648 25.336 12.08 25.832 12.64C26.328 13.184 26.704 13.832 26.96 14.584C27.216 15.32 27.344 16.112 27.344 16.96V17.248H25.328V16.96C25.312 16.416 25.224 15.888 25.064 15.376C24.92 14.864 24.688 14.416 24.368 14.032C24.064 13.632 23.672 13.32 23.192 13.096C22.712 12.856 22.128 12.736 21.44 12.736C20.144 12.736 19.168 13.208 18.512 14.152C17.872 15.096 17.552 16.336 17.552 17.872V21.328C17.552 22.976 17.872 24.248 18.512 25.144C19.168 26.024 20.144 26.464 21.44 26.464Z" fill="#F9F4EB"/>
</svg>
